<?xml version="1.0" standalone="no"?>
<!DOCTYPE svg PUBLIC "-//W3C//DTD SVG 20010904//EN"
 "http://www.w3.org/TR/2001/REC-SVG-20010904/DTD/svg10.dtd">
<svg version="1.0" xmlns="http://www.w3.org/2000/svg"
 width="567.000000pt" height="352.000000pt" viewBox="0 0 567.000000 352.000000"
 preserveAspectRatio="xMidYMid meet">
<metadata>
Created by potrace 1.16, written by Peter Selinger 2001-2019
</metadata>
<g transform="translate(0.000000,352.000000) scale(0.100000,-0.100000)"
fill="#000000" stroke="none">
<path d="M1197 2905 c-32 -6 -76 -25 -100 -41 -48 -34 -102 -108 -117 -162 -6
-24 -10 -383 -10 -1023 0 -1133 -6 -1055 88 -1149 99 -99 -62 -91 1712 -88
1555 3 1555 3 1595 25 56 30 118 100 141 159 18 47 19 90 19 1060 0 1010 0
1010 -30 1069 -35 68 -103 126 -169 145 -59 16 -3049 21 -3129 5z m3131 -106
c26 -13 54 -38 70 -62 24 -36 27 -52 30 -144 4 -103 4 -103 -480 -105 -483 -3
-483 -3 -483 -48 0 -38 3 -45 20 -46 11 -1 228 -2 483 -3 462 -1 462 -1 462
-211 0 -210 0 -210 -295 -210 -295 0 -295 0 -295 -45 0 -45 0 -45 295 -45 295
0 295 0 293 -614 -3 -614 -3 -614 -34 -653 -16 -21 -50 -48 -74 -61 -44 -22
-44 -22 -1570 -22 -1453 0 -1527 1 -1565 19 -52 23 -102 81 -112 128 -4 21 -8
299 -8 618 0 580 0 580 298 583 297 2 297 2 297 47 0 45 0 45 -295 45 -295 0
-295 0 -300 23 -3 12 -4 105 -3 207 3 185 3 185 491 188 487 2 487 2 487 52 0
50 0 50 -487 52 -488 3 -488 3 -487 96 2 84 5 98 31 140 16 27 46 56 68 69 40
23 40 23 1579 23 1540 0 1540 0 1584 -21z"/>
<path d="M2707 2614 c-4 -4 -7 -45 -7 -91 0 -84 0 -84 46 -81 46 3 46 3 46 88
0 85 0 85 -39 88 -21 2 -42 0 -46 -4z"/>
<path d="M2418 2583 c-33 -5 -32 2 -11 -101 17 -83 17 -83 58 -76 22 3 43 8
46 10 3 1 -4 41 -15 88 -15 64 -24 86 -35 85 -9 -1 -28 -4 -43 -6z"/>
<path d="M3002 2508 c-12 -46 -18 -86 -14 -90 4 -4 25 -8 46 -10 39 -3 39 -3
57 81 10 47 18 86 16 87 -1 1 -20 5 -43 9 -41 6 -41 6 -62 -77z"/>
<path d="M2123 2484 c-32 -14 -41 -28 -25 -38 5 -3 21 -37 36 -75 15 -39 30
-71 32 -71 3 0 22 9 44 20 39 20 39 20 4 90 -18 38 -34 74 -34 80 0 13 -18 12
-57 -6z"/>
<path d="M3291 2425 c-18 -41 -34 -78 -34 -82 -1 -7 58 -41 74 -43 3 0 19 30
34 68 15 37 32 71 37 77 4 5 8 13 8 17 0 7 -64 38 -79 38 -3 0 -21 -34 -40
-75z"/>
<path d="M1845 2325 c-22 -18 -27 -28 -20 -38 6 -8 28 -39 49 -71 21 -31 43
-56 48 -56 12 0 68 42 68 50 0 11 -100 140 -108 140 -4 -1 -20 -12 -37 -25z"/>
<path d="M3552 2279 c-28 -39 -50 -74 -48 -77 6 -10 76 -46 79 -41 2 2 25 35
51 73 47 69 47 69 19 92 -15 13 -32 23 -38 24 -5 0 -34 -32 -63 -71z"/>
<path d="M2599 2320 c-230 -37 -437 -125 -631 -270 -153 -114 -368 -348 -368
-400 0 -52 222 -290 375 -403 164 -121 363 -211 560 -253 113 -24 324 -24 435
0 337 72 667 288 885 579 25 32 45 66 45 75 0 50 -212 283 -356 391 -180 134
-327 207 -522 257 -108 28 -322 40 -423 24z m286 -91 c151 -18 356 -96 509
-194 130 -83 295 -236 368 -343 30 -43 30 -43 1 -85 -44 -65 -190 -207 -279
-274 -243 -179 -474 -263 -730 -263 -252 0 -452 67 -699 234 -97 66 -276 235
-320 304 -28 42 -28 42 0 83 42 65 182 205 268 270 285 215 579 304 882 268z"/>
<path d="M2615 2196 c-198 -48 -358 -208 -410 -411 -19 -77 -19 -191 1 -269
27 -103 63 -166 144 -247 119 -120 235 -169 405 -169 160 0 291 56 399 170
214 227 206 566 -18 785 -60 58 -167 118 -252 140 -69 18 -198 18 -269 1z
m226 -86 c236 -44 410 -290 371 -525 -25 -152 -126 -284 -267 -351 -141 -68
-315 -57 -443 26 -257 167 -296 506 -82 720 115 115 261 160 421 130z"/>
<path d="M2885 1946 c-39 -17 -55 -37 -62 -79 -16 -101 108 -163 181 -90 52
52 37 141 -28 168 -42 18 -52 18 -91 1z"/>
<path d="M2632 1874 c-157 -78 -184 -294 -50 -408 129 -111 321 -73 391 77 14
28 28 74 31 100 6 48 6 48 -32 42 -58 -10 -60 -11 -67 -57 -6 -32 -19 -54 -50
-85 -40 -41 -45 -43 -102 -43 -71 0 -115 25 -144 80 -49 91 1 194 108 223 37
10 43 15 43 38 0 15 3 34 6 43 10 27 -73 21 -134 -10z"/>
<path d="M1616 2121 c-14 -15 -26 -30 -26 -32 0 -8 122 -129 129 -129 3 0 18
15 33 34 27 33 27 33 -41 94 -68 61 -68 61 -95 33z"/>
<path d="M3775 2080 c-60 -60 -60 -60 -28 -92 33 -33 33 -33 98 32 65 64 65
64 38 92 -15 15 -32 28 -37 28 -6 -1 -38 -27 -71 -60z"/>
<path d="M1646 1280 c-60 -57 -60 -57 -35 -88 13 -17 29 -31 34 -31 6 0 39 27
74 60 63 61 63 61 35 90 -15 16 -33 28 -38 28 -6 -1 -38 -27 -70 -59z"/>
<path d="M3741 1308 c-24 -30 -24 -30 40 -89 35 -32 69 -58 74 -58 6 0 21 14
34 31 25 31 25 31 -40 89 -35 32 -68 58 -74 58 -5 0 -21 -14 -34 -31z"/>
<path d="M1871 1079 c-28 -38 -51 -73 -51 -77 1 -4 16 -17 36 -29 34 -22 34
-22 84 45 27 37 49 72 50 77 0 6 -16 20 -34 32 -34 22 -34 22 -85 -48z"/>
<path d="M3538 1119 c-16 -11 -28 -25 -28 -30 0 -12 90 -134 99 -134 11 1 71
40 71 47 0 13 -95 137 -105 137 -5 0 -22 -9 -37 -20z"/>
<path d="M2129 923 c-19 -42 -35 -80 -37 -84 -3 -7 61 -39 77 -39 7 0 75 159
70 164 -4 3 -71 36 -74 36 -1 0 -17 -35 -36 -77z"/>
<path d="M3293 983 c-18 -9 -33 -20 -33 -25 0 -7 60 -147 67 -157 5 -6 84 32
81 39 -39 90 -73 160 -77 159 -3 0 -21 -8 -38 -16z"/>
<path d="M2406 815 c-10 -48 -16 -88 -14 -90 2 -1 21 -6 43 -9 41 -7 41 -7 62
79 11 47 18 87 14 89 -3 2 -24 7 -47 10 -41 7 -41 7 -58 -79z"/>
<path d="M3015 891 c-35 -7 -35 -3 -11 -105 18 -78 18 -78 59 -72 23 4 43 9
45 11 2 2 -5 41 -15 87 -20 88 -23 91 -78 79z"/>
<path d="M2700 770 c0 -91 0 -91 46 -88 47 3 47 3 47 88 0 85 0 85 -47 88 -46
3 -46 3 -46 -88z"/>
</g>
</svg>
